name analog
datacolumns 19
datarows 24
range 0.577 0.5885
endheader
time	ground_force_vx	ground_force_vy	ground_force_vz	ground_force_px	ground_force_py	ground_force_pz	l_ground_force_vx	l_ground_force_vy	l_ground_force_vz	l_ground_force_px	l_ground_force_py	l_ground_force_pz	ground_torque_x	ground_torque_y	ground_torque_z	l_ground_torque_x	l_ground_torque_y	l_ground_torque_z
0.577	-0.0	-0.0	-0.0	-0.0	-0.0	-0.0	-8.982833862304688	4.888179302215576	-710.8472900390625	-0.0	-0.0	-0.0	-0.0	-0.0	-0.0	199854.625	45735.83203125	-3928.5380859375
0.5775	-0.0	-0.0	-0.0	-0.0	-0.0	-0.0	-9.758251190185549	5.092739105224609	-711.3807373046875	-0.0	-0.0	-0.0	-0.0	-0.0	-0.0	200058.8125	46275.53125	-4238.0302734375
0.578	-0.0	-0.0	-0.0	-0.0	-0.0	-0.0	-10.423140525817873	4.79107666015625	-712.125244140625	-0.0	-0.0	-0.0	-0.0	-0.0	-0.0	200291.03125	46792.85546875	-4503.50439453125
0.5785	-0.0	-0.0	-0.0	-0.0	-0.0	-0.0	-11.38372039794922	4.47703218460083	-712.0283203125	-0.0	-0.0	-0.0	-0.0	-0.0	-0.0	200400.53125	47234.58203125	-4852.640625
0.579	-0.0	-0.0	-0.0	-0.0	-0.0	-0.0	-11.857070922851562	3.907677412033081	-714.015869140625	-0.0	-0.0	-0.0	-0.0	-0.0	-0.0	200856.078125	47857.01953125	-4969.1806640625
0.5795	-0.0	-0.0	-0.0	-0.0	-0.0	-0.0	-12.65652847290039	3.2980456352233887	-713.6709594726562	-0.0	-0.0	-0.0	-0.0	-0.0	-0.0	200895.734375	48249.3203125	-5071.14404296875
0.58	-0.0	-0.0	-0.0	-0.0	-0.0	-0.0	-13.344051361083984	2.687397003173828	-714.8892822265625	-0.0	-0.0	-0.0	-0.0	-0.0	-0.0	201118.25	48647.7578125	-5180.20947265625
0.5805	-0.0	-0.0	-0.0	-0.0	-0.0	-0.0	-13.394857406616213	2.177976608276367	-714.1339111328125	-0.0	-0.0	-0.0	-0.0	-0.0	-0.0	201145.609375	48829.23828125	-5269.60595703125
0.581	-0.0	-0.0	-0.0	-0.0	-0.0	-0.0	-13.868379592895508	1.906118631362915	-716.28466796875	-0.0	-0.0	-0.0	-0.0	-0.0	-0.0	201585.453125	49389.7578125	-5358.880859375
0.5815	-0.0	-0.0	-0.0	-0.0	-0.0	-0.0	-14.20854663848877	2.090282678604126	-717.5068359375	-0.0	-0.0	-0.0	-0.0	-0.0	-0.0	202011.1875	49599.21875	-5502.427734375
0.582	-0.0	-0.0	-0.0	-0.0	-0.0	-0.0	-14.592887878417969	2.207904577255249	-719.2518310546875	-0.0	-0.0	-0.0	-0.0	-0.0	-0.0	202555.84375	49747.953125	-5467.97412109375
0.5825	-0.0	-0.0	-0.0	-0.0	-0.0	-0.0	-14.430838584899902	2.8847835063934326	-720.8819580078125	-0.0	-0.0	-0.0	-0.0	-0.0	-0.0	203465.984375	49994.66796875	-5635.9150390625
0.583	-0.0	-0.0	-0.0	-0.0	-0.0	-0.0	-14.142231941223145	3.3417818546295166	-723.673828125	-0.0	-0.0	-0.0	-0.0	-0.0	-0.0	204240.53125	50254.046875	-5494.7353515625
0.5835	-0.0	-0.0	-0.0	-0.0	-0.0	-0.0	-14.253063201904297	3.886186122894287	-726.6434326171875	-0.0	-0.0	-0.0	-0.0	-0.0	-0.0	205042.65625	50432.30859375	-5496.9033203125
0.584	-0.0	-0.0	-0.0	-0.0	-0.0	-0.0	-14.872961044311523	4.519556999206543	-728.828857421875	-0.0	-0.0	-0.0	-0.0	-0.0	-0.0	205806.828125	50553.55078125	-5603.30322265625
0.5845	-0.0	-0.0	-0.0	-0.0	-0.0	-0.0	-15.258255004882812	4.945076942443848	-732.1708984375	-0.0	-0.0	-0.0	-0.0	-0.0	-0.0	206595.125	50844.48046875	-5734.4404296875
0.585	-0.0	-0.0	-0.0	-0.0	-0.0	-0.0	-15.398609161376951	5.504167079925537	-733.3651733398438	-0.0	-0.0	-0.0	-0.0	-0.0	-0.0	207027.625	50996.54296875	-5833.05322265625
0.5855	-0.0	-0.0	-0.0	-0.0	-0.0	-0.0	-15.390668869018556	5.857614040374756	-734.55517578125	-0.0	-0.0	-0.0	-0.0	-0.0	-0.0	207338.640625	51098.3828125	-5774.89111328125
0.586	-0.0	-0.0	-0.0	-0.0	-0.0	-0.0	-15.273578643798828	6.077476501464844	-735.0574340820312	-0.0	-0.0	-0.0	-0.0	-0.0	-0.0	207542.859375	51250.40234375	-5804.26025390625
0.5865	-0.0	-0.0	-0.0	-0.0	-0.0	-0.0	-15.671180725097656	6.153604030609131	-735.4151000976562	-0.0	-0.0	-0.0	-0.0	-0.0	-0.0	207367.375	51249.0	-5734.21142578125
0.587	-0.0	-0.0	-0.0	-0.0	-0.0	-0.0	-16.058908462524414	6.558770656585693	-735.892333984375	-0.0	-0.0	-0.0	-0.0	-0.0	-0.0	207625.703125	51337.8515625	-5860.6787109375
0.5875	-0.0	-0.0	-0.0	-0.0	-0.0	-0.0	-16.424785614013672	6.66828727722168	-734.7326049804688	-0.0	-0.0	-0.0	-0.0	-0.0	-0.0	207558.890625	51449.4453125	-5957.65966796875
0.588	-0.0	-0.0	-0.0	-0.0	-0.0	-0.0	-17.038095474243164	6.799149513244629	-733.0374145507812	-0.0	-0.0	-0.0	-0.0	-0.0	-0.0	207306.390625	51487.4375	-6136.55322265625
0.5885	-0.0	-0.0	-0.0	-0.0	-0.0	-0.0	-17.38967514038086	7.154056549072266	-732.7559814453125	-0.0	-0.0	-0.0	-0.0	-0.0	-0.0	206896.546875	51735.19140625	-6131.75732421875
